<?xml version="1.0"?>
<svg xmlns="http://www.w3.org/2000/svg" viewBox="0 0 512 512" width="512" height="512"><g id="Outline"><path d="M450.979,280.435l-57.146-11.429,1.9-6.968c1.985-7.268,3.739-14.678,5.25-22.105A8,8,0,0,0,408,232a55.772,55.772,0,0,0-2.807-17.476c.765-6,1.382-12.044,1.823-18,.018-.166.033-.332.041-.5.1-1.337.176-2.683.26-4.027H408a32,32,0,1,0,0-64s-.035-42.287-.064-42.754c0-.027,0-.053,0-.079a49.045,49.045,0,0,0-1.364-9.792l-.056-.219-.016,0A56.086,56.086,0,0,0,352,32H331.548a56.39,56.39,0,0,1-31.377-9.5A38.7,38.7,0,0,0,240,54.7V57.3a38.529,38.529,0,0,0,9.5,25.351A58.221,58.221,0,0,0,248,96v32a31.877,31.877,0,0,0-22.049,8.842,249.032,249.032,0,0,0-9.763-115.335,8,8,0,0,0-15.136-.192L152,158.9,102.945,21.313A8,8,0,0,0,95.411,16h-.1a8,8,0,0,0-7.5,5.506,250.307,250.307,0,0,0-.826,153.718l27.835,87.965L76.983,369.311a65.585,65.585,0,0,0-38.445,15.254,62.681,62.681,0,0,0-22.146,41.1h0A62.017,62.017,0,0,0,30.155,472.11a64.828,64.828,0,0,0,44.786,23.627q2.841.258,5.688.257a66.331,66.331,0,0,0,42.692-15.8c13.226-11.235,21.169-26.578,22.367-43.2a62.938,62.938,0,0,0-23.135-53.061l17.51-42.59a68.565,68.565,0,0,1,11.949-19.181,69.113,69.113,0,0,1,8.134,11.417C160.1,339.564,160,464,160,464a32.036,32.036,0,0,0,32,32h48a7.992,7.992,0,0,0,2.653-.453l85.357-30.011,85.336,30.011A7.993,7.993,0,0,0,416,496h48a32,32,0,0,0,32-32V335.35A56.158,56.158,0,0,0,450.979,280.435ZM408,144a16,16,0,0,1,0,32Zm-32,80a39.479,39.479,0,0,1-24.391-8.352A34.494,34.494,0,0,0,330.467,208h-4.933a34.495,34.495,0,0,0-21.143,7.648A39.479,39.479,0,0,1,280,224H264.8A40.071,40.071,0,0,1,304,192h48a40.071,40.071,0,0,1,39.2,32Zm8.618,16c-1.281,5.988-9.906,38.313-9.906,38.313A24.056,24.056,0,0,1,351.56,296H304.44a24.055,24.055,0,0,1-23.151-17.684s-8.626-32.327-9.907-38.316H280a55.333,55.333,0,0,0,34.191-11.706A18.97,18.97,0,0,1,325.534,224h4.933a18.969,18.969,0,0,1,11.342,4.294A55.333,55.333,0,0,0,376,240ZM320.41,133.47,306.234,176H304a55.643,55.643,0,0,0-22.722,4.836,11.984,11.984,0,0,1-4.045-4.285l-12.314-38.887A201.477,201.477,0,0,0,290.33,96h75.339a201.272,201.272,0,0,0,25.5,41.774l-11.695,40.817A11.8,11.8,0,0,1,376.4,181.6,55.663,55.663,0,0,0,352,176H323.1l12.49-37.47ZM264,111.325V96c0-.976.036-1.931.092-2.873a38.314,38.314,0,0,0,8.745,2.429Q268.756,103.719,264,111.325Zm3.23,78.491c-.86.751-1.7,1.522-2.514,2.323-.132-2-.251-3.99-.34-5.955A27.952,27.952,0,0,0,267.23,189.816Zm122.764,1.093c.51-.538,1.006-1.091,1.473-1.669-.055.967-.125,1.929-.188,2.894Q390.646,191.51,389.994,190.909ZM383.389,96H392v15.325Q387.376,103.936,383.389,96ZM256,54.7a22.7,22.7,0,0,1,35.3-18.891A72.333,72.333,0,0,0,331.548,48H352a40.071,40.071,0,0,1,39.2,32H278.7A22.73,22.73,0,0,1,256,57.3ZM248,144V170.46c0,1.855.02,3.7.049,5.538H248a16,16,0,0,1,0-32Zm-30.985,31.228c.391-1.236.764-2.476,1.136-3.716A32.046,32.046,0,0,0,248,192h.679c.083,1.341,1.363,16.524,2.128,22.525A55.778,55.778,0,0,0,248,232a8,8,0,0,0,7.013,7.933c1.511,7.428,7.154,29.075,7.154,29.075-1.1.218-48.4,9.681-57.161,11.439a56.416,56.416,0,0,0-8.782,2.519l-7.045-19.759ZM102.238,170.4a234.267,234.267,0,0,1-5.78-119.636l47.047,131.964-19.8,55.527Zm23.027,164.865-19.883,48.361a8,8,0,0,0,3,9.721,47.1,47.1,0,0,1,21.351,42.5,46.533,46.533,0,0,1-16.766,32.158,49.958,49.958,0,0,1-36.576,11.8A48.946,48.946,0,0,1,42.554,462a46.141,46.141,0,0,1-10.262-34.548c2.745-24.453,24.77-43,50.119-42.227a8.025,8.025,0,0,0,7.779-5.31L207.55,50.731A233,233,0,0,1,201.761,170.4L162.938,293.107A85.609,85.609,0,0,0,125.265,335.262Zm49.958-7.48a85.141,85.141,0,0,0-11.344-16.345,71.257,71.257,0,0,1,9.31-5.66,7.994,7.994,0,0,0,4.016-4.726l3.987-12.6L207.2,361.4l-16.543,2.851-11.92-28.994c-1.012-2.462-2.153-4.893-3.391-7.231C175.307,327.943,175.266,327.862,175.223,327.782Zm.815,54.989,38.711-6.452,45.673,22.836a7.976,7.976,0,0,0,3.008.824l71.556,5.112a42.493,42.493,0,0,0-8.061,12.759l-13.356-2.671-3.138,15.69,13.356,2.671a42.467,42.467,0,0,0,2.365,14.382L266.654,427a7.943,7.943,0,0,0-1.174-.315l-56-10.546a8,8,0,0,0-4.451.434L176,428.183C176.01,414.1,176.022,397.863,176.038,382.771Zm62.484,55.117a16.187,16.187,0,0,1-13.64,10.347c-9.02.958-17.133-5.3-18.1-13.981-.042-.372-.065-.744-.08-1.117l2.111-.844ZM227.638,479.8c-1.5.132-2.968.2-4.368.2-21.509,0-41.172-14.487-47.224-34.6l15.365-6.145a32.309,32.309,0,0,0,31.637,25.081,33.587,33.587,0,0,0,3.526-.187,32.034,32.034,0,0,0,27.8-23.272l7.545,1.42,8.323,2.927C264.937,464.068,248.222,477.933,227.638,479.8Zm50.671-13.75a62.478,62.478,0,0,0,7.046-15.515l18.54,6.52ZM480,464a16.019,16.019,0,0,1-16,16H417.366l-56.088-19.725.019-.1c-.277-.055-.548-.122-.82-.186l-5.6-1.968a26.874,26.874,0,0,1-14.951-21.257l30.84,6.168-2.522,12.61,15.69,3.138,2.522-12.61,13.073,2.615A21.907,21.907,0,1,0,402.669,433L389.6,430.384l2.522-12.61-15.689-3.137-2.522,12.61-30.847-6.17A26.815,26.815,0,0,1,364.8,407.22L480,415.449Zm-64.7-20.316a5.907,5.907,0,1,1,4.634,6.95A5.915,5.915,0,0,1,415.3,443.684ZM480,399.408,405.688,394.1l35.564-17.782L480,382.777Zm0-32.852-38.688-6.448a8.007,8.007,0,0,0-4.89.737L416,371.056V344H400v35.056l-10.023,5.011-83.14,2.973-40.681-2.906L248,375.056V344H232v23.056l-7.053-3.527L201.6,298.039a40.232,40.232,0,0,1,6.554-1.9c8.761-1.756,56.829-11.372,58.291-11.663a40.1,40.1,0,0,0,38,27.529h47.12a40.1,40.1,0,0,0,38-27.532l58.283,11.657A40.113,40.113,0,0,1,480,335.35Z"/><path d="M84.422,401.01c-17.727-1.887-33.745,10.716-35.7,28.1a31.135,31.135,0,0,0,6.742,23.113,32.321,32.321,0,0,0,21.96,11.931,33.117,33.117,0,0,0,3.516.187c16.286,0,30.36-12.062,32.181-28.283a31.134,31.134,0,0,0-6.742-23.112A32.323,32.323,0,0,0,84.422,401.01Zm12.8,33.258c-.973,8.663-9.1,14.929-18.1,13.971A16.432,16.432,0,0,1,67.943,442.2a15.247,15.247,0,0,1-3.318-11.311h0c.973-8.662,9.085-14.928,18.1-13.971a16.436,16.436,0,0,1,11.176,6.038A15.241,15.241,0,0,1,97.224,434.268Z"/><rect x="144" y="256" width="16" height="16"/><circle cx="292" cy="148" r="12"/><circle cx="364" cy="148" r="12"/></g></svg>
